<svg width="32" height="32" viewBox="0 0 32 32" fill="none" xmlns="http://www.w3.org/2000/svg">
<path fill-rule="evenodd" clip-rule="evenodd" d="M16 32C24.8366 32 32 24.8366 32 16C32 7.16344 24.8366 0 16 0C7.16344 0 0 7.16344 0 16C0 24.8366 7.16344 32 16 32ZM21.3333 18.962V15.5833L15.3333 18.008L9.33334 14.766V18.962C9.33334 20.7387 13.2987 21.6667 15.3333 21.6667C17.474 21.6667 21.3333 20.798 21.3333 18.962ZM7.33334 12.1667L15.9447 8.33334L24 12.8333V18.3333H22.6667V13.5553L15.3333 16.5L7.33334 12.1667ZM22 21.6667H24.6667C24.2607 20.906 24 20.0107 24 19H22.6667C22.6667 20 22.3853 21 22 21.6667Z" fill="#282C34"/>
</svg>
