<svg width="15" height="22" viewBox="0 0 15 22" fill="none" xmlns="http://www.w3.org/2000/svg">
<g clip-path="url(#clip0_2_17)">
<path d="M3.66735 22.0002C5.69094 22.0002 7.33327 20.3575 7.33327 18.3335V14.6667H3.66735C1.64377 14.6667 0.00143433 16.3094 0.00143433 18.3335C0.00143433 20.3575 1.64377 22.0002 3.66735 22.0002Z" fill="#0ACF83"/>
<path d="M0.00143433 10.9999C0.00143433 8.97591 1.64377 7.33325 3.66735 7.33325H7.33327V14.6666H3.66735C1.64377 14.6666 0.00143433 13.0239 0.00143433 10.9999Z" fill="#B053FF"/>
<path d="M0.00146484 3.66667C0.00146484 1.64267 1.6438 0 3.66738 0H7.3333V7.33333H3.66738C1.6438 7.33333 0.00146484 5.69067 0.00146484 3.66667Z" fill="#F24E1E"/>
<path d="M7.33334 0H10.9993C13.0229 0 14.6652 1.64267 14.6652 3.66667C14.6652 5.69067 13.0229 7.33333 10.9993 7.33333H7.33334V0Z" fill="#FF7262"/>
<path d="M14.6652 10.9999C14.6652 13.0239 13.0229 14.6666 10.9993 14.6666C8.97569 14.6666 7.33334 13.0239 7.33334 10.9999C7.33334 8.97591 8.97569 7.33325 10.9993 7.33325C13.0229 7.33325 14.6652 8.97591 14.6652 10.9999Z" fill="#1ABCFE"/>
</g>
<defs>
<clipPath id="clip0_2_17">
<rect width="14.6667" height="22" fill="white"/>
</clipPath>
</defs>
</svg>
